<svg xmlns="http://www.w3.org/2000/svg" xmlns:xlink="http://www.w3.org/1999/xlink" width="1024" zoomAndPan="magnify" viewBox="0 0 768 767.999994" height="1024" preserveAspectRatio="xMidYMid meet" version="1.0"><defs><clipPath id="f7ffffcbd6"><path d="M 237.605469 102.613281 L 306.929688 102.613281 L 306.929688 171.941406 L 237.605469 171.941406 Z M 237.605469 102.613281 " clip-rule="nonzero"/></clipPath><clipPath id="a11df26ca9"><path d="M 272.269531 102.613281 C 253.125 102.613281 237.605469 118.132812 237.605469 137.277344 C 237.605469 156.421875 253.125 171.941406 272.269531 171.941406 C 291.414062 171.941406 306.929688 156.421875 306.929688 137.277344 C 306.929688 118.132812 291.414062 102.613281 272.269531 102.613281 Z M 272.269531 102.613281 " clip-rule="nonzero"/></clipPath></defs><path fill="#0d0d0d" d="M 295.875 43.125 C 330.640625 43.164062 359.765625 55.914062 383.25 81.375 C 394.597656 96.152344 401.097656 112.902344 402.75 131.625 C 402.875 177.628906 403.25 223.625 403.875 269.625 C 501.289062 330.699219 597.289062 393.824219 691.875 459 C 697.964844 463.339844 703.839844 467.964844 709.5 472.875 C 718.273438 486.273438 719.773438 500.523438 714 515.625 C 702.890625 535.242188 686.015625 543.867188 663.375 541.5 C 653.921875 538.648438 645.171875 534.398438 637.125 528.75 C 600.796875 505.277344 564.921875 481.152344 529.5 456.375 C 508.804688 506.695312 471.929688 537.945312 418.875 550.125 C 418.921875 600.042969 418.671875 649.917969 418.125 699.75 C 421.039062 701.140625 424.039062 702.390625 427.125 703.5 C 432.542969 707.335938 433.667969 712.210938 430.5 718.125 C 429.09375 719.78125 427.46875 721.15625 425.625 722.25 C 360.125 722.75 294.625 722.75 229.125 722.25 C 222.007812 720.648438 219.382812 716.273438 221.25 709.125 C 223.621094 707.195312 223.621094 705.195312 221.25 703.125 C 220.15625 699.269531 221.03125 696.019531 223.875 693.375 C 220.375 688.621094 220 683.625 222.75 678.375 C 226.472656 674.933594 230.851562 673.808594 235.875 675 C 259.082031 680.367188 282.332031 685.492188 305.625 690.375 C 305.457031 685.828125 307.457031 682.703125 311.625 681 C 314.316406 680.410156 316.941406 680.535156 319.5 681.375 C 319.875 637.375 320 593.375 319.875 549.375 C 273.535156 537.902344 239.160156 511.152344 216.75 469.125 C 207.855469 448.792969 202.605469 427.542969 201 405.375 C 200.792969 340.871094 200.417969 276.371094 199.875 211.875 C 150.625 212 101.375 211.875 52.125 211.5 C 42.769531 207.648438 40.144531 201.027344 44.25 191.625 C 46.535156 188.355469 49.65625 186.230469 53.625 185.25 C 102.625 174 151.625 162.75 200.625 151.5 C 198.453125 106.578125 217.203125 73.828125 256.875 53.25 C 269.359375 47.503906 282.359375 44.128906 295.875 43.125 Z M 211.875 149.625 C 211.132812 145.519531 210.882812 141.269531 211.125 136.875 C 213.230469 101.277344 230.480469 76.152344 262.875 61.5 C 301.605469 46.457031 336.609375 52.457031 367.875 79.5 C 381.191406 92.007812 389.066406 107.382812 391.5 125.625 C 393.160156 173.105469 393.660156 220.605469 393 268.125 C 388.375 283.242188 378.5 288.617188 363.375 284.25 C 359.019531 281.769531 355.519531 278.394531 352.875 274.125 C 350.902344 271.46875 348.652344 271.21875 346.125 273.375 C 336.675781 287.300781 324.925781 289.675781 310.875 280.5 C 308.785156 278.195312 306.785156 275.820312 304.875 273.375 C 303.425781 272.609375 301.925781 272.484375 300.375 273 C 291.699219 285.394531 280.449219 288.644531 266.625 282.75 C 262.875 280 259.625 276.75 256.875 273 C 255.125 272.5 253.375 272.5 251.625 273 C 248.304688 277.824219 244.054688 281.574219 238.875 284.25 C 225.722656 287.859375 216.347656 283.484375 210.75 271.125 C 210.375 251.375 210.25 231.625 210.375 211.875 C 219.183594 212.203125 227.933594 211.828125 236.625 210.75 C 247.933594 204.320312 250.808594 195.195312 245.25 183.375 C 238.5 174.125 231.75 164.875 225 155.625 C 221.785156 151.09375 217.410156 149.09375 211.875 149.625 Z M 267.375 106.875 C 287.828125 106.339844 299.828125 116.089844 303.375 136.125 C 302.332031 151.039062 294.832031 161.164062 280.875 166.5 C 263.425781 170.601562 250.550781 164.726562 242.25 148.875 C 236.96875 126.6875 245.34375 112.6875 267.375 106.875 Z M 316.875 136.875 C 321.035156 136.40625 323.285156 138.28125 323.625 142.5 C 320.90625 147.625 317.53125 148 313.5 143.625 C 313.433594 140.761719 314.558594 138.511719 316.875 136.875 Z M 210.375 159.375 C 213.710938 159.105469 216.335938 160.355469 218.25 163.125 C 224.933594 172.242188 231.433594 181.492188 237.75 190.875 C 238.792969 196.417969 236.667969 200.042969 231.375 201.75 C 172.625 202.25 113.875 202.25 55.125 201.75 C 50.574219 199.550781 50.824219 197.425781 55.875 195.375 C 107.523438 183.585938 159.023438 171.585938 210.375 159.375 Z M 399.375 278.625 C 462.390625 317.65625 524.390625 358.15625 585.375 400.125 C 584.84375 402.503906 583.96875 404.753906 582.75 406.875 C 572.992188 418.324219 561.117188 426.949219 547.125 432.75 C 505.105469 450.636719 465.355469 446.636719 427.875 420.75 C 393.570312 394.5 379.191406 359.875 384.75 316.875 C 387.546875 303.289062 392.421875 290.539062 399.375 278.625 Z M 253.875 282.375 C 263.457031 293.824219 275.457031 297.199219 289.875 292.5 C 294.691406 289.929688 298.816406 286.554688 302.25 282.375 C 310.9375 294.101562 322.3125 297.726562 336.375 293.25 C 340.941406 290.558594 345.191406 287.433594 349.125 283.875 C 357.566406 293.398438 368.066406 297.023438 380.625 294.75 C 366.035156 338.300781 373.410156 377.675781 402.75 412.875 C 434.746094 445.789062 473.496094 458.789062 519 451.875 C 509.761719 477.628906 494.136719 498.753906 472.125 515.25 C 455.808594 526.09375 438.183594 534.21875 419.25 539.625 C 419 534.125 418.75 528.625 418.5 523.125 C 413.71875 513.113281 406.34375 510.742188 396.375 516 C 394.421875 517.453125 393.046875 519.328125 392.25 521.625 C 391.199219 529.324219 390.824219 537.078125 391.125 544.875 C 358.25 547.769531 326.5 543.144531 295.875 531 C 257.113281 513.234375 230.988281 484.109375 217.5 443.625 C 214.539062 433.816406 212.539062 423.816406 211.5 413.625 C 210.105469 371.128906 210.105469 328.628906 211.5 286.125 C 218.75 293.097656 227.375 295.722656 237.375 294 C 244.320312 292.152344 249.820312 288.28125 253.875 282.375 Z M 594.375 405.375 C 617.339844 420.960938 640.214844 436.710938 663 452.625 C 671.144531 465.640625 669.019531 476.515625 656.625 485.25 C 649.359375 488.746094 642.109375 488.746094 634.875 485.25 C 610.421875 469.546875 586.171875 453.542969 562.125 437.25 C 573.765625 431.859375 583.390625 423.984375 591 413.625 C 592.550781 411.027344 593.675781 408.28125 594.375 405.375 Z M 550.125 442.875 C 552.195312 443.535156 554.195312 444.410156 556.125 445.5 C 579.875 461.25 603.625 477 627.375 492.75 C 643.9375 501.921875 658.8125 499.796875 672 486.375 C 676.8125 479.121094 679.0625 471.121094 678.75 462.375 C 684.664062 467.039062 690.792969 471.417969 697.125 475.5 C 706.054688 484.121094 708.929688 494.5 705.75 506.625 C 699.789062 522.375 688.289062 530.625 671.25 531.375 C 666.734375 531.183594 662.359375 530.308594 658.125 528.75 C 616.851562 503.117188 576.351562 476.367188 536.625 448.5 C 541.351562 446.972656 545.851562 445.097656 550.125 442.875 Z M 402.375 523.125 C 405.007812 522.65625 407.136719 523.40625 408.75 525.375 C 408.851562 585.875 408.851562 646.375 408.75 706.875 C 409.125 708.25 410 709.125 411.375 709.5 C 414.785156 710.105469 418.035156 711.105469 421.125 712.5 C 386.625 713 352.125 713 317.625 712.5 C 312.964844 711.148438 312.839844 709.773438 317.25 708.375 C 317.886719 706.058594 317.511719 703.933594 316.125 702 C 321.671875 699.519531 322.046875 696.394531 317.25 692.625 C 316.75 691.875 316.75 691.125 317.25 690.375 C 343.597656 696.460938 370.097656 701.960938 396.75 706.875 C 398.234375 706.777344 399.484375 706.277344 400.5 705.375 C 400.238281 673.742188 400.363281 642.117188 400.875 610.5 C 401.054688 608.332031 400.429688 606.457031 399 604.875 C 396.957031 603.832031 394.832031 602.957031 392.625 602.25 C 389.976562 596.308594 391.976562 593.054688 398.625 592.5 C 399.667969 591.621094 400.296875 590.496094 400.5 589.125 C 400.75 567.625 401 546.125 401.25 524.625 C 401.789062 524.21875 402.164062 523.714844 402.375 523.125 Z M 335.625 552.375 C 336.117188 568.949219 336.617188 585.449219 337.125 601.875 C 337.042969 629.179688 337.042969 656.675781 337.125 684.375 C 334.644531 683.960938 332.144531 683.710938 329.625 683.625 C 329.445312 639.457031 329.195312 595.453125 328.875 551.625 C 331.089844 552.121094 333.339844 552.367188 335.625 552.375 Z M 346.125 553.875 C 361.042969 556.332031 376.042969 556.832031 391.125 555.375 C 391.328125 564.882812 391.453125 574.382812 391.5 583.875 C 389.21875 586.132812 386.96875 588.382812 384.75 590.625 C 380.019531 599.421875 381.644531 606.671875 389.625 612.375 C 390.253906 635.371094 390.753906 658.371094 391.125 681.375 C 390.875 686.125 390.625 690.875 390.375 695.625 C 375.929688 692.335938 361.429688 689.335938 346.875 686.625 C 346.355469 642.378906 346.105469 598.128906 346.125 553.875 Z M 246.375 712.125 C 241.484375 712.367188 236.734375 712.117188 232.125 711.375 C 237.078125 709.964844 238.328125 706.964844 235.875 702.375 C 234.410156 701.429688 232.910156 700.554688 231.375 699.75 C 236.730469 697.925781 238.230469 694.550781 235.875 689.625 C 234.617188 688.664062 233.242188 687.914062 231.75 687.375 C 231.386719 686.664062 231.261719 685.914062 231.375 685.125 C 256.265625 690.328125 281.015625 695.953125 305.625 702 C 305.375 702.25 305.125 702.5 304.875 702.75 C 305.574219 703.644531 306.074219 704.644531 306.375 705.75 C 305.425781 708.058594 304.675781 710.433594 304.125 712.875 C 284.910156 712.132812 265.660156 711.882812 246.375 712.125 Z M 246.375 712.125 " fill-opacity="1" fill-rule="evenodd"/><path fill="#cfcfcf" d="M 393.375 76.875 C 392.875 76.875 392.625 77.125 392.625 77.625 C 392.21875 77.578125 391.96875 77.332031 391.875 76.875 C 392.441406 75.921875 392.941406 75.921875 393.375 76.875 Z M 393.375 76.875 " fill-opacity="1" fill-rule="evenodd"/><path fill="#090909" d="M 393.375 76.875 C 506.730469 81.75 593.609375 131.75 654 226.875 C 693.804688 295.199219 705.179688 367.949219 688.125 445.125 C 683.152344 442.144531 678.402344 438.894531 673.875 435.375 C 677.40625 419.324219 679.40625 403.074219 679.875 386.625 C 652.625 386.226562 625.375 385.851562 598.125 385.5 C 590.960938 380.707031 583.710938 376.082031 576.375 371.625 C 610.875 371.125 645.375 370.625 679.875 370.125 C 676.613281 303.675781 653.738281 245.175781 611.25 194.625 C 584.507812 214.257812 554.882812 227.757812 522.375 235.125 C 531.304688 270.890625 536.304688 307.140625 537.375 343.875 C 531.695312 340.816406 526.320312 337.316406 521.25 333.375 C 519.566406 301.90625 514.941406 270.90625 507.375 240.375 C 476.035156 247.039062 444.410156 250.539062 412.5 250.875 C 411.890625 245.691406 412.015625 240.5625 412.875 235.5 C 442.777344 235.074219 472.277344 231.449219 501.375 224.625 C 491.828125 187.285156 474.953125 153.785156 450.75 124.125 C 442.796875 114.664062 433.171875 107.539062 421.875 102.75 C 415.636719 100.753906 409.386719 98.878906 403.125 97.125 C 399.605469 90.585938 396.105469 84.085938 392.625 77.625 C 392.625 77.125 392.875 76.875 393.375 76.875 Z M 448.875 100.125 C 507.851562 111.800781 558.226562 139.300781 600 182.625 C 600.5 183.125 600.5 183.625 600 184.125 C 574.675781 200.722656 547.300781 212.722656 517.875 220.125 C 506.777344 180.675781 488.402344 145.175781 462.75 113.625 C 458.222656 108.972656 453.597656 104.472656 448.875 100.125 Z M 448.875 100.125 " fill-opacity="1" fill-rule="evenodd"/><path fill="#0e0e0e" d="M 264.375 97.875 C 288.9375 95.703125 305.0625 106.203125 312.75 129.375 C 325.796875 126.914062 331.796875 132.414062 330.75 145.875 C 328.113281 150.816406 325.488281 155.691406 322.875 160.5 C 324.214844 162.351562 325.589844 164.226562 327 166.125 C 327.5 168.625 327.5 171.125 327 173.625 C 321.589844 178.152344 321.589844 182.652344 327 187.125 C 327.5 189.625 327.5 192.125 327 194.625 C 325.449219 197.042969 324.074219 199.546875 322.875 202.125 C 324.453125 204.527344 325.828125 207.027344 327 209.625 C 327.5 211.875 327.5 214.125 327 216.375 C 325.5 219.117188 324.375 221.992188 323.625 225 C 323.75 225.875 323.875 226.75 324 227.625 C 327.15625 230.449219 328.15625 233.949219 327 238.125 C 326.375 239.75 325.25 240.875 323.625 241.5 C 315.25 243.125 311.875 239.75 313.5 231.375 C 314.214844 229.910156 315.214844 228.660156 316.5 227.625 C 317 225.625 317 223.625 316.5 221.625 C 311.035156 216.085938 311.035156 210.582031 316.5 205.125 C 317.660156 201.355469 316.660156 198.355469 313.5 196.125 C 312.019531 191.539062 313.019531 187.539062 316.5 184.125 C 316.625 182.875 316.75 181.625 316.875 180.375 C 314.972656 177.039062 313.472656 173.414062 312.375 169.5 C 312.894531 166.582031 314.269531 164.207031 316.5 162.375 C 316.871094 160.640625 316.996094 158.894531 316.875 157.125 C 316.085938 157.238281 315.335938 157.113281 314.625 156.75 C 312.660156 155.160156 311.160156 153.285156 310.125 151.125 C 296.070312 176.769531 275.820312 183.394531 249.375 171 C 229.859375 155.570312 225.984375 136.945312 237.75 115.125 C 244.652344 106.242188 253.527344 100.492188 264.375 97.875 Z M 267.375 106.875 C 245.34375 112.6875 236.96875 126.6875 242.25 148.875 C 250.550781 164.726562 263.425781 170.601562 280.875 166.5 C 294.832031 161.164062 302.332031 151.039062 303.375 136.125 C 299.828125 116.089844 287.828125 106.339844 267.375 106.875 Z M 316.875 136.875 C 314.558594 138.511719 313.433594 140.761719 313.5 143.625 C 317.53125 148 320.90625 147.625 323.625 142.5 C 323.285156 138.28125 321.035156 136.40625 316.875 136.875 Z M 316.875 136.875 " fill-opacity="1" fill-rule="evenodd"/><path fill="#111111" d="M 258.375 122.625 C 261.125 122.625 263.875 122.625 266.625 122.625 C 266.332031 128.554688 265.582031 134.429688 264.375 140.25 C 265.503906 147.125 269.253906 149.125 275.625 146.25 C 276.527344 145.574219 277.152344 144.699219 277.5 143.625 C 278.109375 136.511719 277.484375 129.511719 275.625 122.625 C 278.625 122.625 281.625 122.625 284.625 122.625 C 285.441406 128.988281 286.191406 135.363281 286.875 141.75 C 285.203125 153.085938 278.703125 157.835938 267.375 156 C 259.769531 153.554688 255.769531 148.304688 255.375 140.25 C 256.480469 134.382812 257.480469 128.507812 258.375 122.625 Z M 258.375 122.625 " fill-opacity="1" fill-rule="evenodd"/><path fill="#656564" d="M 211.125 136.875 C 210.882812 141.269531 211.132812 145.519531 211.875 149.625 C 211.828125 150.03125 211.582031 150.28125 211.125 150.375 C 210.136719 145.757812 210.136719 141.257812 211.125 136.875 Z M 211.125 136.875 " fill-opacity="1" fill-rule="evenodd"/><path fill="#5f5f5f" d="M 135.375 220.125 C 137.980469 219.269531 140.730469 219.140625 143.625 219.75 C 143.199219 220.496094 142.699219 221.121094 142.125 221.625 C 140.257812 220.210938 138.007812 219.707031 135.375 220.125 Z M 135.375 220.125 " fill-opacity="1" fill-rule="evenodd"/><path fill="#090909" d="M 135.375 220.125 C 138.007812 219.707031 140.257812 220.210938 142.125 221.625 C 129.261719 243.859375 118.386719 267.109375 109.5 291.375 C 101.390625 317.269531 96.765625 343.769531 95.625 370.875 C 96.625 370.875 97.625 370.875 98.625 370.875 C 130.125 370.875 161.625 370.875 193.125 370.875 C 192.882812 375.765625 193.132812 380.515625 193.875 385.125 C 184.136719 386.125 174.136719 386.625 163.875 386.625 C 141.269531 386.347656 118.519531 386.097656 95.625 385.875 C 97.582031 453.140625 119.707031 512.640625 162 564.375 C 189.105469 546.199219 218.355469 532.449219 249.75 523.125 C 257.421875 529.273438 265.546875 534.773438 274.125 539.625 C 280.523438 556.9375 287.148438 574.1875 294 591.375 C 299.25 601.382812 305.25 610.882812 312 619.875 C 312.628906 627.660156 312.378906 635.410156 311.25 643.125 C 290.140625 621.167969 275.390625 595.417969 267 565.875 C 264.148438 556.21875 261.648438 546.46875 259.5 536.625 C 234.957031 543.722656 211.582031 553.597656 189.375 566.25 C 183.835938 569.515625 178.585938 573.140625 173.625 577.125 C 211.773438 617.726562 257.777344 645.726562 311.625 661.125 C 312.917969 666.285156 313.417969 671.535156 313.125 676.875 C 277.78125 668.824219 245.277344 654.449219 215.625 633.75 C 128.363281 572.5 83.113281 488.25 79.875 381 C 80.429688 323.660156 95.179688 270.285156 124.125 220.875 C 127.84375 220.128906 131.59375 219.878906 135.375 220.125 Z M 135.375 220.125 " fill-opacity="1" fill-rule="evenodd"/><path fill="#cfcfcf" d="M 98.625 370.875 C 130.246094 370.125 161.996094 369.875 193.875 370.125 C 193.875 375.125 193.875 380.125 193.875 385.125 C 193.132812 380.515625 192.882812 375.765625 193.125 370.875 C 161.625 370.875 130.125 370.875 98.625 370.875 Z M 98.625 370.875 " fill-opacity="1" fill-rule="evenodd"/><path fill="#cbcbcb" d="M 679.875 370.125 C 645.375 370.625 610.875 371.125 576.375 371.625 C 575.96875 371.578125 575.71875 371.332031 575.625 370.875 C 610.371094 370.125 645.121094 369.875 679.875 370.125 Z M 679.875 370.125 " fill-opacity="1" fill-rule="evenodd"/><path fill="#0a0a0a" d="M 532.125 471.375 C 532.679688 471.277344 533.179688 471.402344 533.625 471.75 C 529.6875 488.378906 525.6875 505.003906 521.625 521.625 C 553.9375 530.78125 583.9375 544.78125 611.625 563.625 C 619.070312 554.867188 626.070312 545.742188 632.625 536.25 C 637.039062 538.609375 641.539062 541.109375 646.125 543.75 C 607.757812 602.355469 555.757812 644.105469 490.125 669 C 469.742188 676.453125 448.742188 681.074219 427.125 682.875 C 427.238281 674.070312 426.863281 665.316406 426 656.625 C 452.542969 635.335938 472.546875 609.085938 486 577.875 C 489.601562 568.316406 493.351562 558.816406 497.25 549.375 C 499.261719 543.972656 500.882812 538.472656 502.125 532.875 C 496.300781 532.488281 490.550781 531.613281 484.875 530.25 C 490.09375 526.28125 495.09375 522.03125 499.875 517.5 C 501.789062 517.484375 503.664062 517.859375 505.5 518.625 C 506.972656 514.738281 508.222656 510.738281 509.25 506.625 C 518.386719 495.855469 526.011719 484.105469 532.125 471.375 Z M 517.125 536.625 C 547.355469 545.117188 575.355469 558.242188 601.125 576 C 557.894531 623.929688 504.394531 653.679688 440.625 665.25 C 455.109375 652.769531 467.988281 638.894531 479.25 623.625 C 495.75 596.371094 508.375 567.371094 517.125 536.625 Z M 517.125 536.625 " fill-opacity="1" fill-rule="evenodd"/><path fill="#b9b9b9" d="M 335.625 552.375 C 337.117188 568.605469 337.617188 585.105469 337.125 601.875 C 336.617188 585.449219 336.117188 568.949219 335.625 552.375 Z M 335.625 552.375 " fill-opacity="1" fill-rule="evenodd"/><path fill="#0f0f0f" d="M 354.375 665.625 C 364.375 666.101562 374.375 666.601562 384.375 667.125 C 384.90625 672.859375 385.15625 678.609375 385.125 684.375 C 375.125 683.375 365.125 682.375 355.125 681.375 C 354.902344 676.914062 354.152344 672.539062 352.875 668.25 C 353.234375 667.273438 353.734375 666.398438 354.375 665.625 Z M 354.375 665.625 " fill-opacity="1" fill-rule="evenodd"/><path fill="#89898a" d="M 232.125 711.375 C 236.734375 712.117188 241.484375 712.367188 246.375 712.125 C 241.257812 712.992188 236.007812 713.117188 230.625 712.5 C 231.03125 711.960938 231.535156 711.585938 232.125 711.375 Z M 232.125 711.375 " fill-opacity="1" fill-rule="evenodd"/><g clip-path="url(#f7ffffcbd6)"><g clip-path="url(#a11df26ca9)"><path fill="#ffffff" d="M 237.605469 102.613281 L 306.929688 102.613281 L 306.929688 171.941406 L 237.605469 171.941406 Z M 237.605469 102.613281 " fill-opacity="1" fill-rule="nonzero"/></g></g></svg>